HIERARCHY
ROOT joint_Root
{
	OFFSET 0.0 0.0 0.0
	CHANNELS 6 Xposition Yposition Zposition Zrotation Xrotation Yrotation 
	JOINT Hips
	{
		OFFSET -0.726466 93.3139 -2.00062
		CHANNELS 6 Xposition Yposition Zposition Zrotation Xrotation Yrotation 
		JOINT Spine
		{
			OFFSET 15.7357 0.0 0.0
			CHANNELS 6 Xposition Yposition Zposition Zrotation Xrotation Yrotation 
			JOINT Chest
			{
				OFFSET 8.98455 -0.406207 0.0
				CHANNELS 6 Xposition Yposition Zposition Zrotation Xrotation Yrotation 
				JOINT Neck
				{
					OFFSET 16.3773 0.0 0.0
					CHANNELS 6 Xposition Yposition Zposition Zrotation Xrotation Yrotation 
					JOINT Head
					{
						OFFSET 6.45672 0.0 0.0
						CHANNELS 6 Xposition Yposition Zposition Zrotation Xrotation Yrotation 
						End Site
						{
							OFFSET 0.0 0.0 0.0
						}
					}
				}
				JOINT Shoulder_L
				{
					OFFSET 12.9942 -0.242716 4.98039
					CHANNELS 6 Xposition Yposition Zposition Zrotation Xrotation Yrotation 
					JOINT UpperArm_L
					{
						OFFSET 5.34809 0.0 0.0
						CHANNELS 6 Xposition Yposition Zposition Zrotation Xrotation Yrotation 
						JOINT LowerArm_L
						{
							OFFSET 24.3286 1.87007e-05 0.0
							CHANNELS 6 Xposition Yposition Zposition Zrotation Xrotation Yrotation 
							JOINT Hand_L
							{
								OFFSET 22.2916 0.0 0.0
								CHANNELS 6 Xposition Yposition Zposition Zrotation Xrotation Yrotation 
								End Site
								{
									OFFSET 0.0 0.0 0.0
								}
							}
						}
					}
				}
				JOINT Shoulder_R
				{
					OFFSET 12.9945 -0.242716 -4.98039
					CHANNELS 6 Xposition Yposition Zposition Zrotation Xrotation Yrotation 
					JOINT UpperArm_R
					{
						OFFSET -5.34813 0.0 0.0
						CHANNELS 6 Xposition Yposition Zposition Zrotation Xrotation Yrotation 
						JOINT LowerArm_R
						{
							OFFSET -24.3289 0.000322201 0.0
							CHANNELS 6 Xposition Yposition Zposition Zrotation Xrotation Yrotation 
							JOINT Hand_R
							{
								OFFSET -22.2915 -0.000108084 0.0
								CHANNELS 6 Xposition Yposition Zposition Zrotation Xrotation Yrotation 
								End Site
								{
									OFFSET 0.0 0.0 0.0
								}
							}
						}
					}
				}
			}
		}
		JOINT UpperLeg_L
		{
			OFFSET -2.19248 -6.46944 0.0
			CHANNELS 6 Xposition Yposition Zposition Zrotation Xrotation Yrotation 
			JOINT LowerLeg_L
			{
				OFFSET 39.0811 0.0 -1.23785e-05
				CHANNELS 6 Xposition Yposition Zposition Zrotation Xrotation Yrotation 
				JOINT Foot_L
				{
					OFFSET 40.9854 0.0 -1.26872e-05
					CHANNELS 6 Xposition Yposition Zposition Zrotation Xrotation Yrotation 
					JOINT Toes_L
					{
						OFFSET 11.7543 0.0 0.0
						CHANNELS 6 Xposition Yposition Zposition Zrotation Xrotation Yrotation 
						End Site
						{
							OFFSET 0.0 0.0 0.0
						}
					}
				}
			}
		}
		JOINT UpperLeg_R
		{
			OFFSET -2.19251 6.46944 0.0
			CHANNELS 6 Xposition Yposition Zposition Zrotation Xrotation Yrotation 
			JOINT LowerLeg_R
			{
				OFFSET -39.0811 -0.00228153 -0.0401928
				CHANNELS 6 Xposition Yposition Zposition Zrotation Xrotation Yrotation 
				JOINT Foot_R
				{
					OFFSET -40.9854 0.0 0.0
					CHANNELS 6 Xposition Yposition Zposition Zrotation Xrotation Yrotation 
					JOINT Toes_R
					{
						OFFSET -11.7543 0.0 0.0
						CHANNELS 6 Xposition Yposition Zposition Zrotation Xrotation Yrotation 
						End Site
						{
							OFFSET 0.0 0.0 0.0
						}
					}
				}
			}
		}
	}
}
MOTION
Frames:	7
Frame Time:	0.0333333
0.000000 0.000000 0.000000 0.000000 0.000000 -0.000000 0.443296 92.995300 -0.932591 88.131000 -9.923120 1.465620 15.735700 0.000005 -0.000001 101.139000 87.170000 -101.520000 8.984550 -0.406207 -0.000000 -2.208900 1.126340 -0.740536 16.377300 -0.000001 -0.000001 2.220890 -1.205170 3.874930 6.456720 -0.000001 -0.000000 5.773210 0.256843 -5.547970 12.994200 -0.242716 4.980390 -90.480600 1.408630 -71.158400 5.348090 -0.000007 -0.000001 -68.920300 36.796100 -9.190750 24.328600 0.000019 0.000005 3.439360 8.600090 -21.895400 22.291600 -0.000001 0.000005 4.146960 5.489000 -6.096570 12.994500 -0.242716 -4.980390 88.531000 4.410180 -71.556400 -5.348130 -0.000001 -0.000004 -70.029400 -20.387800 -71.593300 -24.328900 0.000322 -0.000009 20.066500 -7.431850 -109.499000 -22.291500 -0.000108 -0.000004 18.889200 5.199540 2.730660 -2.192480 -6.469440 -0.000000 -176.317000 -11.289200 -1.642060 39.081100 -0.000007 -0.000012 -0.067719 0.220727 17.055900 40.985400 -0.000006 -0.000013 -0.854159 -1.149080 -63.694000 11.754300 -0.000000 0.000003 -0.000000 -0.000002 -16.577500 -2.192510 6.469440 -0.000001 179.149000 6.566720 179.923000 -39.081100 -0.002282 -0.040193 -0.018375 0.093271 13.102100 -40.985400 0.000008 0.000006 2.060540 10.410100 -62.022100 -11.754300 -0.000006 -0.000006 -0.003580 -0.047001 -18.484800
0.000000 0.000000 0.000000 0.000000 0.000000 -0.000000 0.487621 92.988300 -0.941975 88.120900 -9.844640 1.511760 15.735700 0.000005 -0.000001 100.985000 87.149500 -101.324000 8.984550 -0.406207 -0.000000 -2.166180 1.115440 -0.658219 16.377300 -0.000001 -0.000001 2.244560 -1.269720 3.916570 6.456720 -0.000001 -0.000000 5.820570 0.196609 -5.588410 12.994200 -0.242716 4.980390 -90.470400 1.382740 -71.211000 5.348090 -0.000007 -0.000001 -68.915100 36.844900 -9.147300 24.328600 0.000019 0.000005 3.438730 8.645240 -21.789000 22.291600 -0.000001 0.000005 4.130370 5.488620 -6.081930 12.994500 -0.242716 -4.980390 88.545100 4.357330 -71.515500 -5.348130 -0.000001 -0.000004 -70.021600 -20.403200 -71.810100 -24.328900 0.000322 -0.000009 20.022700 -7.392730 -109.447000 -22.291500 -0.000108 -0.000004 18.951800 5.197510 2.781480 -2.192480 -6.469440 -0.000000 -176.312000 -11.408100 -1.664370 39.081100 -0.000007 -0.000012 -0.068215 0.220930 17.158700 40.985400 -0.000006 -0.000013 -0.792894 -0.971095 -63.730100 11.754300 -0.000000 0.000003 -0.000000 -0.000004 -16.577600 -2.192510 6.469440 -0.000001 179.133000 6.567590 179.930000 -39.081100 -0.002282 -0.040193 -0.018199 0.092012 13.170900 -40.985400 0.000008 0.000006 2.042790 10.329700 -62.047400 -11.754300 -0.000006 -0.000006 -0.003714 -0.048427 -18.542900
0.000000 0.000000 0.000000 0.000000 0.000000 -0.000000 0.532312 92.991200 -0.949360 88.159700 -9.691830 1.536860 15.735700 0.000005 -0.000001 100.654000 87.135100 -100.974000 8.984550 -0.406207 -0.000000 -2.132000 1.086670 -0.619775 16.377300 -0.000001 -0.000001 2.259950 -1.354330 3.983680 6.456720 -0.000001 -0.000000 5.887020 0.121866 -5.599740 12.994200 -0.242716 4.980390 -90.474000 1.394270 -71.221500 5.348090 -0.000007 -0.000001 -68.878800 36.741100 -9.158320 24.328600 0.000019 0.000005 3.480550 8.783210 -21.718100 22.291600 -0.000001 0.000005 4.105230 5.488740 -6.086300 12.994500 -0.242716 -4.980390 88.556300 4.304590 -71.439700 -5.348130 -0.000001 -0.000004 -69.886300 -20.452200 -71.788000 -24.328900 0.000322 -0.000009 19.894700 -7.335370 -109.433000 -22.291500 -0.000108 -0.000004 18.948300 5.198210 2.764130 -2.192480 -6.469440 -0.000000 -176.372000 -11.287200 -1.661340 39.081100 -0.000007 -0.000012 -0.067864 0.220297 17.121800 40.985400 -0.000006 -0.000013 -0.751525 -0.885363 -63.691300 11.754300 -0.000000 0.000003 -0.000000 -0.000003 -16.577600 -2.192510 6.469440 -0.000001 179.073000 6.619410 179.947000 -39.081100 -0.002282 -0.040193 -0.018144 0.091718 13.179600 -40.985400 0.000008 0.000006 2.026720 10.218700 -62.050200 -11.754300 -0.000006 -0.000006 -0.003606 -0.047273 -18.495900
0.000000 0.000000 0.000000 0.000000 0.000000 -0.000000 0.576875 92.993200 -0.972526 88.183800 -9.490700 1.536790 15.735700 0.000005 -0.000001 100.348000 87.131200 -100.652000 8.984550 -0.406207 -0.000000 -2.119030 1.056570 -0.588467 16.377300 -0.000001 -0.000001 2.286250 -1.430940 4.034760 6.456720 -0.000001 -0.000000 5.905360 0.076439 -5.485140 12.994200 -0.242716 4.980390 -90.476000 1.397320 -71.186800 5.348090 -0.000007 -0.000001 -68.781800 36.743500 -9.217980 24.328600 0.000019 0.000005 3.473400 8.757230 -21.735400 22.291600 -0.000001 0.000005 4.187270 5.488470 -6.075790 12.994500 -0.242716 -4.980390 88.550300 4.308540 -71.382900 -5.348130 -0.000001 -0.000004 -69.368200 -20.612900 -71.249500 -24.328900 0.000322 -0.000009 19.675600 -7.272500 -109.495000 -22.291500 -0.000108 -0.000004 18.984600 5.199860 2.722830 -2.192480 -6.469440 -0.000000 -176.438000 -11.164600 -1.706840 39.081100 -0.000007 -0.000012 -0.067128 0.217950 17.118600 40.985400 -0.000006 -0.000013 -0.706027 -0.848333 -63.664800 11.754300 -0.000000 0.000003 -0.000000 -0.000002 -16.577600 -2.192510 6.469440 -0.000001 179.042000 6.645240 179.934000 -39.081100 -0.002282 -0.040193 -0.017637 0.089473 13.190500 -40.985400 0.000008 0.000006 2.013840 10.051100 -62.048700 -11.754300 -0.000006 -0.000006 -0.003563 -0.046819 -18.477400
0.000000 0.000000 0.000000 0.000000 0.000000 -0.000000 0.599541 92.986500 -0.983061 88.203600 -9.270710 1.621320 15.735700 0.000005 -0.000001 100.102000 87.087700 -100.387000 8.984550 -0.406207 -0.000000 -2.029210 1.045760 -0.551765 16.377300 -0.000001 -0.000001 2.276660 -1.519950 4.072800 6.456720 -0.000001 -0.000000 5.913850 -0.040949 -5.414930 12.994200 -0.242716 4.980390 -90.490300 1.438740 -71.179000 5.348090 -0.000007 -0.000001 -68.690200 36.646400 -9.286910 24.328600 0.000019 0.000005 3.532640 8.883400 -21.789900 22.291600 -0.000001 0.000005 4.111740 5.488820 -6.089400 12.994500 -0.242716 -4.980390 88.543300 4.317610 -71.336700 -5.348130 -0.000001 -0.000004 -68.405800 -20.712600 -70.050500 -24.328900 0.000322 -0.000009 19.524600 -7.257210 -109.608000 -22.291500 -0.000108 -0.000004 19.157100 5.200640 2.703030 -2.192480 -6.469440 -0.000000 -176.461000 -10.998000 -1.710510 39.081100 -0.000007 -0.000012 -0.067010 0.216466 17.200600 40.985400 -0.000006 -0.000013 -0.673841 -0.762129 -63.675800 11.754300 -0.000000 0.000003 -0.000000 -0.000003 -16.577600 -2.192510 6.469440 -0.000001 179.004000 6.706830 179.984000 -39.081100 -0.002282 -0.040193 -0.017781 0.089448 13.281400 -40.985400 0.000008 0.000006 2.023880 9.916690 -62.108200 -11.754300 -0.000006 -0.000006 -0.003724 -0.048537 -18.547300
0.000000 0.000000 0.000000 0.000000 0.000000 -0.000000 0.618133 92.982800 -1.000320 88.235400 -8.991140 1.645500 15.735700 0.000005 -0.000001 99.875600 87.059900 -100.144000 8.984550 -0.406207 -0.000000 -1.970520 1.031060 -0.518844 16.377300 -0.000001 -0.000001 2.244710 -1.583440 4.111080 6.456720 -0.000001 -0.000000 5.877280 -0.104366 -5.379660 12.994200 -0.242716 4.980390 -90.505500 1.480710 -71.148400 5.348090 -0.000007 -0.000001 -68.604800 36.632300 -9.372970 24.328600 0.000019 0.000005 3.485130 8.720550 -21.884500 22.291600 -0.000001 0.000005 4.232200 5.489860 -6.130460 12.994500 -0.242716 -4.980390 88.516100 4.395650 -71.325500 -5.348130 -0.000001 -0.000004 -66.744400 -20.687500 -67.977200 -24.328900 0.000322 -0.000009 18.607800 -7.015700 -109.940000 -22.291500 -0.000108 -0.000004 19.301300 5.204400 2.608710 -2.192480 -6.469440 -0.000000 -176.519000 -10.770200 -1.769460 39.081100 -0.000007 -0.000012 -0.066525 0.214262 17.248800 40.985400 -0.000006 -0.000013 -0.648875 -0.746290 -63.665600 11.754300 -0.000000 0.000003 -0.000000 -0.000000 -16.577500 -2.192510 6.469440 -0.000001 178.966000 6.771880 179.982000 -39.081100 -0.002282 -0.040193 -0.018996 0.094209 13.333700 -40.985400 0.000008 0.000006 1.932340 9.711380 -62.117700 -11.754300 -0.000006 -0.000006 -0.003403 -0.045080 -18.406600
0.000000 0.000000 0.000000 0.000000 0.000000 -0.000000 0.622192 92.982400 -1.016210 88.298200 -8.688080 1.723630 15.735700 0.000005 -0.000001 99.355300 87.020600 -99.621700 8.984550 -0.406207 -0.000000 -1.884330 0.990810 -0.516360 16.377300 -0.000001 -0.000001 2.250390 -1.598260 4.110520 6.456720 -0.000001 -0.000000 5.842050 -0.119922 -5.260410 12.994200 -0.242716 4.980390 -90.511900 1.498130 -71.131700 5.348090 -0.000007 -0.000001 -68.586400 36.593000 -9.421230 24.328600 0.000019 0.000005 3.507930 8.739500 -21.971500 22.291600 -0.000001 0.000005 4.256940 5.489060 -6.099120 12.994500 -0.242716 -4.980390 88.478900 4.524470 -71.395700 -5.348130 -0.000001 -0.000004 -64.474100 -20.365200 -64.861800 -24.328900 0.000322 -0.000009 17.592000 -6.765450 -110.383000 -22.291500 -0.000108 -0.000004 18.951000 5.211650 2.425490 -2.192480 -6.469440 -0.000000 -176.584000 -10.480900 -1.746660 39.081100 -0.000007 -0.000012 -0.065526 0.211289 17.229800 40.985400 -0.000006 -0.000013 -0.632554 -0.693566 -63.619200 11.754300 -0.000000 0.000003 -0.000000 -0.000001 -16.577500 -2.192510 6.469440 -0.000001 178.900000 6.922300 -179.948000 -39.081100 -0.002282 -0.040193 -0.019135 0.094452 13.380800 -40.985400 0.000008 0.000006 1.887420 9.535060 -62.150900 -11.754300 -0.000006 -0.000006 -0.003605 -0.047269 -18.495700
